#Comment line ignore any data following # character 
#Hierarchical Translation and Rotation (.htr) file 
[Header]	
#Header keywords are followed by a single value 
FileType HTR		#Single word string
DataType HTRS		#Translation followed by rotation and scale data
FileVersion 1		#integer
NumSegments 84		#integer
NumFrames 2		#integer
DataFrameRate 30		#integer, data frame rate in this file
EulerRotationOrder ZYX
CalibrationUnits mm
RotationUnits Degrees
GlobalAxisofGravity Y
BoneLengthAxis Y
ScaleFactor 1.00
[SegmentNames&Hierarchy]
#CHILD	PARENT
MASTER GLOBAL
root MASTER
chest root
L_mid_tent01 root
R_mid_tent01 root
spine01 root
Bip01_Neck chest
L_humerus chest
R_humerus chest
weapon_bone chest
Bip01_Head Bip01_Neck
eye_left_bone Bip01_Head
eye_right_bone Bip01_Head
L_forearm L_humerus
L_front_hand L_forearm
L_weapon_bone L_forearm
L_front_hand01_01 L_front_hand
L_front_hand02_01 L_front_hand
L_front_hand03_01 L_front_hand
L_front_hand01_02 L_front_hand01_01
L_front_hand02_02 L_front_hand02_01
L_front_hand03_02 L_front_hand03_01
R_forearm R_humerus
R_front_hand R_forearm
R_weapon_bone R_forearm
R_front_hand01_01 R_front_hand
R_front_hand02_01 R_front_hand
R_front_hand03_01 R_front_hand
R_front_hand01_02 R_front_hand01_01
R_front_hand02_02 R_front_hand02_01
R_front_hand03_02 R_front_hand03_01
null_rope01_connect L_mid_tent01
Rope1_Seg01 null_rope01_connect
Rope1_Seg02 Rope1_Seg01
Rope1_Seg03 Rope1_Seg02
Rope1_Seg04 Rope1_Seg03
Rope1_Seg05 Rope1_Seg04
Rope1_Seg06 Rope1_Seg05
Rope1_Seg07 Rope1_Seg06
Rope1_Seg09 Rope1_Seg07
L_mid_hand01 Rope1_Seg09
L_mid_hand02 Rope1_Seg09
L_mid_hand03 Rope1_Seg09
null_rope02_connect R_mid_tent01
Rope2_Seg01 null_rope02_connect
Rope2_Seg02 Rope2_Seg01
Rope2_Seg03 Rope2_Seg02
Rope2_Seg04 Rope2_Seg03
Rope2_Seg05 Rope2_Seg04
Rope2_Seg06 Rope2_Seg05
Rope2_Seg07 Rope2_Seg06
Rope2_Seg09 Rope2_Seg07
R_mid_hand01 Rope2_Seg09
R_mid_hand02 Rope2_Seg09
R_mid_hand03 Rope2_Seg09
spine02 spine01
spine03 spine02
pelvis spine03
null_rope03_connect pelvis
null_rope04_connect pelvis
Rope3_Seg01 null_rope03_connect
Rope3_Seg02 Rope3_Seg01
Rope3_Seg03 Rope3_Seg02
Rope3_Seg04 Rope3_Seg03
Rope3_Seg05 Rope3_Seg04
Rope3_Seg06 Rope3_Seg05
Rope3_Seg07 Rope3_Seg06
Rope3_Seg08 Rope3_Seg07
Rope3_Seg09 Rope3_Seg08
R_rear_hand01 Rope3_Seg09
R_rear_hand02 Rope3_Seg09
R_rear_hand03 Rope3_Seg09
Rope4_Seg01 null_rope04_connect
Rope4_Seg02 Rope4_Seg01
Rope4_Seg03 Rope4_Seg02
Rope4_Seg04 Rope4_Seg03
Rope4_Seg05 Rope4_Seg04
Rope4_Seg06 Rope4_Seg05
Rope4_Seg07 Rope4_Seg06
Rope4_Seg08 Rope4_Seg07
Rope4_Seg09 Rope4_Seg08
L_rear_hand01 Rope4_Seg09
L_rear_hand02 Rope4_Seg09
L_rear_hand03 Rope4_Seg09
[BasePosition]
#SegmentName Tx, Ty, Tz, Rx, Ry, Rz, BoneLength
MASTER 0.000000 0.000000 0.000000 -90.000000 0.000000 0.000000 10.000000 
root 0.000000 0.000000 0.000000 0.000000 0.000000 0.000000 10.000000 
chest 0.000000 0.000000 0.000000 0.000000 0.000000 0.000000 10.000000 
L_mid_tent01 0.000000 0.000000 0.000000 0.000000 0.000000 0.000000 10.000000 
R_mid_tent01 0.000000 0.000000 0.000000 0.000000 0.000000 0.000000 10.000000 
spine01 0.000000 0.000000 0.000000 0.000000 0.000000 0.000000 10.000000 
Bip01_Neck 0.000000 0.000000 0.000000 0.000000 0.000000 0.000000 10.000000 
L_humerus 0.000000 0.000000 0.000000 0.000000 0.000000 0.000000 10.000000 
R_humerus 0.000000 0.000000 0.000000 0.000000 0.000000 0.000000 10.000000 
weapon_bone 0.000000 0.000000 0.000000 0.000000 0.000000 0.000000 10.000000 
Bip01_Head 0.000000 0.000000 0.000000 0.000000 0.000000 0.000000 10.000000 
eye_left_bone 0.000000 0.000000 0.000000 0.000000 0.000000 0.000000 10.000000 
eye_right_bone 0.000000 0.000000 0.000000 0.000000 0.000000 0.000000 10.000000 
L_forearm 0.000000 0.000000 0.000000 0.000000 0.000000 0.000000 10.000000 
L_front_hand 0.000000 0.000000 0.000000 0.000000 0.000000 0.000000 10.000000 
L_weapon_bone 0.000000 0.000000 0.000000 0.000000 0.000000 0.000000 10.000000 
L_front_hand01_01 0.000000 0.000000 0.000000 0.000000 0.000000 0.000000 10.000000 
L_front_hand02_01 0.000000 0.000000 0.000000 0.000000 0.000000 0.000000 10.000000 
L_front_hand03_01 0.000000 0.000000 0.000000 0.000000 0.000000 0.000000 10.000000 
L_front_hand01_02 0.000000 0.000000 0.000000 0.000000 0.000000 0.000000 10.000000 
L_front_hand02_02 0.000000 0.000000 0.000000 0.000000 0.000000 0.000000 10.000000 
L_front_hand03_02 0.000000 0.000000 0.000000 0.000000 0.000000 0.000000 10.000000 
R_forearm 0.000000 0.000000 0.000000 0.000000 0.000000 0.000000 10.000000 
R_front_hand 0.000000 0.000000 0.000000 0.000000 0.000000 0.000000 10.000000 
R_weapon_bone 0.000000 0.000000 0.000000 0.000000 0.000000 0.000000 10.000000 
R_front_hand01_01 0.000000 0.000000 0.000000 0.000000 0.000000 0.000000 10.000000 
R_front_hand02_01 0.000000 0.000000 0.000000 0.000000 0.000000 0.000000 10.000000 
R_front_hand03_01 0.000000 0.000000 0.000000 0.000000 0.000000 0.000000 10.000000 
R_front_hand01_02 0.000000 0.000000 0.000000 0.000000 0.000000 0.000000 10.000000 
R_front_hand02_02 0.000000 0.000000 0.000000 0.000000 0.000000 0.000000 10.000000 
R_front_hand03_02 0.000000 0.000000 0.000000 0.000000 0.000000 0.000000 10.000000 
null_rope01_connect 0.000000 0.000000 0.000000 0.000000 0.000000 0.000000 10.000000 
Rope1_Seg01 0.000000 0.000000 0.000000 0.000000 0.000000 0.000000 10.000000 
Rope1_Seg02 0.000000 0.000000 0.000000 0.000000 0.000000 0.000000 10.000000 
Rope1_Seg03 0.000000 0.000000 0.000000 0.000000 0.000000 0.000000 10.000000 
Rope1_Seg04 0.000000 0.000000 0.000000 0.000000 0.000000 0.000000 10.000000 
Rope1_Seg05 0.000000 0.000000 0.000000 0.000000 0.000000 0.000000 10.000000 
Rope1_Seg06 0.000000 0.000000 0.000000 0.000000 0.000000 0.000000 10.000000 
Rope1_Seg07 0.000000 0.000000 0.000000 0.000000 0.000000 0.000000 10.000000 
Rope1_Seg09 0.000000 0.000000 0.000000 0.000000 0.000000 0.000000 10.000000 
L_mid_hand01 0.000000 0.000000 0.000000 0.000000 0.000000 0.000000 10.000000 
L_mid_hand02 0.000000 0.000000 0.000000 0.000000 0.000000 0.000000 10.000000 
L_mid_hand03 0.000000 0.000000 0.000000 0.000000 0.000000 0.000000 10.000000 
null_rope02_connect 0.000000 0.000000 0.000000 0.000000 0.000000 0.000000 10.000000 
Rope2_Seg01 0.000000 0.000000 0.000000 0.000000 0.000000 0.000000 10.000000 
Rope2_Seg02 0.000000 0.000000 0.000000 0.000000 0.000000 0.000000 10.000000 
Rope2_Seg03 0.000000 0.000000 0.000000 0.000000 0.000000 0.000000 10.000000 
Rope2_Seg04 0.000000 0.000000 0.000000 0.000000 0.000000 0.000000 10.000000 
Rope2_Seg05 0.000000 0.000000 0.000000 0.000000 0.000000 0.000000 10.000000 
Rope2_Seg06 0.000000 0.000000 0.000000 0.000000 0.000000 0.000000 10.000000 
Rope2_Seg07 0.000000 0.000000 0.000000 0.000000 0.000000 0.000000 10.000000 
Rope2_Seg09 0.000000 0.000000 0.000000 0.000000 0.000000 0.000000 10.000000 
R_mid_hand01 0.000000 0.000000 0.000000 0.000000 0.000000 0.000000 10.000000 
R_mid_hand02 0.000000 0.000000 0.000000 0.000000 0.000000 0.000000 10.000000 
R_mid_hand03 0.000000 0.000000 0.000000 0.000000 0.000000 0.000000 10.000000 
spine02 0.000000 0.000000 0.000000 0.000000 0.000000 0.000000 10.000000 
spine03 0.000000 0.000000 0.000000 0.000000 0.000000 0.000000 10.000000 
pelvis 0.000000 0.000000 0.000000 0.000000 0.000000 0.000000 10.000000 
null_rope03_connect 0.000000 0.000000 0.000000 0.000000 0.000000 0.000000 10.000000 
null_rope04_connect 0.000000 0.000000 0.000000 0.000000 0.000000 0.000000 10.000000 
Rope3_Seg01 0.000000 0.000000 0.000000 0.000000 0.000000 0.000000 10.000000 
Rope3_Seg02 0.000000 0.000000 0.000000 0.000000 0.000000 0.000000 10.000000 
Rope3_Seg03 0.000000 0.000000 0.000000 0.000000 0.000000 0.000000 10.000000 
Rope3_Seg04 0.000000 0.000000 0.000000 0.000000 0.000000 0.000000 10.000000 
Rope3_Seg05 0.000000 0.000000 0.000000 0.000000 0.000000 0.000000 10.000000 
Rope3_Seg06 0.000000 0.000000 0.000000 0.000000 0.000000 0.000000 10.000000 
Rope3_Seg07 0.000000 0.000000 0.000000 0.000000 0.000000 0.000000 10.000000 
Rope3_Seg08 0.000000 0.000000 0.000000 0.000000 0.000000 0.000000 10.000000 
Rope3_Seg09 0.000000 0.000000 0.000000 0.000000 0.000000 0.000000 10.000000 
R_rear_hand01 0.000000 0.000000 0.000000 0.000000 0.000000 0.000000 10.000000 
R_rear_hand02 0.000000 0.000000 0.000000 0.000000 0.000000 0.000000 10.000000 
R_rear_hand03 0.000000 0.000000 0.000000 0.000000 0.000000 0.000000 10.000000 
Rope4_Seg01 0.000000 0.000000 0.000000 0.000000 0.000000 0.000000 10.000000 
Rope4_Seg02 0.000000 0.000000 0.000000 0.000000 0.000000 0.000000 10.000000 
Rope4_Seg03 0.000000 0.000000 0.000000 0.000000 0.000000 0.000000 10.000000 
Rope4_Seg04 0.000000 0.000000 0.000000 0.000000 0.000000 0.000000 10.000000 
Rope4_Seg05 0.000000 0.000000 0.000000 0.000000 0.000000 0.000000 10.000000 
Rope4_Seg06 0.000000 0.000000 0.000000 0.000000 0.000000 0.000000 10.000000 
Rope4_Seg07 0.000000 0.000000 0.000000 0.000000 0.000000 0.000000 10.000000 
Rope4_Seg08 0.000000 0.000000 0.000000 0.000000 0.000000 0.000000 10.000000 
Rope4_Seg09 0.000000 0.000000 0.000000 0.000000 0.000000 0.000000 10.000000 
L_rear_hand01 0.000000 0.000000 0.000000 0.000000 0.000000 0.000000 10.000000 
L_rear_hand02 0.000000 0.000000 0.000000 0.000000 0.000000 0.000000 10.000000 
L_rear_hand03 0.000000 0.000000 0.000000 0.000000 0.000000 0.000000 10.000000 
#Beginning of Data. Separated by tabs
#Fr	Tx	Ty	Tz	Rx	Ry	Rz	SF
[MASTER]
3 0.000000 0.000000 0.000000 0.001660 0.001660 0.001660 0.000000
4 0.000000 0.000000 0.000000 0.001660 0.001660 0.001660 0.000000
[root]
3 -18.725830 -1.936622 1453.967407 -88.565102 -16.668680 -93.811111 1454.089233
4 -21.120403 -9.259411 1460.049194 -85.454140 -21.897409 -98.079254 1460.231201
[chest]
3 -84.512650 -34.090519 0.000000 -0.753038 1.546434 166.229309 91.129311
4 -84.512650 -34.090519 0.000000 0.242274 2.800635 165.644623 91.129311
[L_mid_tent01]
3 27.299124 22.179106 -249.918732 -10.171453 14.471165 40.951843 252.381714
4 27.299126 22.179106 -249.918732 -4.774629 13.774124 55.022541 252.381714
[R_mid_tent01]
3 23.228794 24.509907 226.238495 -177.704071 -29.455683 50.175102 228.744751
4 23.228794 24.509907 226.238495 173.636841 -32.822063 65.134048 228.744751
[spine01]
3 -0.361383 -0.195265 0.000000 0.001997 0.001239 26.382263 0.410763
4 -0.361383 -0.195265 0.000000 0.002020 0.001201 28.549410 0.410763
[Bip01_Neck]
3 165.484543 71.581718 0.000119 176.643677 -1.657967 43.431911 180.302734
4 165.484543 71.581718 0.000119 176.643677 -1.657967 43.431911 180.302734
[L_humerus]
3 -13.983130 -135.272980 -120.471481 -86.174309 83.825874 12.255332 181.680161
4 -13.983130 -135.272980 -120.471481 -156.878387 73.389069 -52.794628 181.680161
[R_humerus]
3 -13.983309 -135.273102 125.287651 51.502617 -78.235931 44.502598 184.909012
4 -13.983309 -135.273102 125.287651 92.036369 -81.241547 4.225796 184.909012
[weapon_bone]
3 235.964890 -300.705902 0.000000 0.000000 -89.951546 -128.212341 382.234833
4 235.964890 -300.705902 0.000000 0.000000 -89.951546 -128.212341 382.234833
[Bip01_Head]
3 213.436691 185.736664 11.503469 4.970813 8.175846 -43.795578 283.170715
4 213.432846 185.747299 11.366751 4.987268 10.061259 -43.762241 283.169281
[eye_left_bone]
3 -24.626970 125.451866 -64.772606 0.000000 -90.000000 -99.840431 143.318359
4 -24.626970 125.451866 -64.772606 0.000000 -90.000000 -99.840431 143.318359
[eye_right_bone]
3 -24.626970 125.451866 64.327362 0.000000 -89.972023 80.156387 143.117676
4 -24.626970 125.451866 64.327362 0.000000 -89.965736 80.156380 143.117676
[L_forearm]
3 322.776093 0.000000 -0.000119 0.000396 -0.002314 -109.419975 322.776093
4 322.776093 0.000000 -0.000119 0.000396 -0.002314 -109.419975 322.776093
[L_front_hand]
3 241.149185 -0.042021 -3.300071 -178.667953 -1.835447 -27.422350 241.171753
4 241.149185 -0.042021 -3.300071 -178.667953 -1.835447 -27.422350 241.171753
[L_weapon_bone]
3 156.183838 0.000000 0.000000 0.000014 0.000007 0.000001 156.183838
4 156.183838 0.000000 0.000000 0.000014 0.000007 0.000001 156.183838
[L_front_hand01_01]
3 86.095154 20.947098 -0.655860 -0.366594 -0.477154 75.385574 88.609184
4 86.095154 20.947098 -0.655860 -0.365371 -0.478091 75.092094 88.609184
[L_front_hand02_01]
3 86.935165 -11.437475 24.513514 154.399796 -59.883835 -61.369587 91.046425
4 86.935165 -11.437475 24.513514 153.946487 -59.758568 -60.843468 91.046425
[L_front_hand03_01]
3 86.637497 -14.123976 -20.424902 -153.913849 58.118122 -62.702866 90.126129
4 86.637497 -14.123976 -20.424902 -153.504349 57.989803 -62.217342 90.126129
[L_front_hand01_02]
3 71.020905 -0.000179 0.000030 0.000320 -0.002325 -105.686226 71.020905
4 71.020905 -0.000179 0.000030 0.000320 -0.002325 -105.648979 71.020905
[L_front_hand02_02]
3 71.020927 -0.000119 0.000060 0.000320 -0.002325 -105.686226 71.020927
4 71.020927 -0.000119 0.000060 0.000320 -0.002325 -105.648979 71.020927
[L_front_hand03_02]
3 71.020905 -0.000060 0.000060 0.000320 -0.002325 -105.686226 71.020905
4 71.020905 -0.000060 0.000060 0.000320 -0.002325 -105.648979 71.020905
[R_forearm]
3 322.776428 -0.000060 0.000030 0.202103 0.065158 -108.062805 322.776428
4 322.776428 -0.000060 0.000030 0.202103 0.065158 -108.062805 322.776428
[R_front_hand]
3 238.847015 -0.006795 2.210259 -2.635298 -10.645460 -26.312500 238.857239
4 238.847015 -0.006795 2.210259 -2.635298 -10.645461 -26.312506 238.857239
[R_weapon_bone]
3 155.664093 0.002503 -0.000030 0.003487 0.001180 -90.988930 155.664078
4 155.664093 0.002503 -0.000030 0.003487 0.001180 -90.988930 155.664078
[R_front_hand01_01]
3 87.624611 14.231146 22.918642 -154.633499 -59.950619 61.746044 91.683487
4 87.624611 14.231146 22.918642 -154.238968 -59.839840 61.284889 91.683487
[R_front_hand02_01]
3 89.356956 14.367283 -19.491137 154.602661 58.302849 63.744389 92.579636
4 89.356956 14.367283 -19.491137 154.231567 58.196690 63.311184 92.579636
[R_front_hand03_01]
3 87.286232 -22.307278 -0.143439 0.162155 -0.423168 -75.767921 90.091743
4 87.286232 -22.307278 -0.143439 0.161230 -0.423521 -75.517479 90.091743
[R_front_hand01_02]
3 71.020905 0.000060 0.000119 0.002323 -0.000334 106.381714 71.020905
4 71.020905 0.000060 0.000119 0.002323 -0.000334 106.381714 71.020905
[R_front_hand02_02]
3 71.020844 -0.000030 -0.000119 0.002323 -0.000334 106.381714 71.020836
4 71.020844 -0.000030 -0.000119 0.002323 -0.000334 106.381714 71.020836
[R_front_hand03_02]
3 71.020905 0.000000 0.000030 0.002323 -0.000334 106.381714 71.020905
4 71.020905 0.000000 0.000030 0.002323 -0.000334 106.381714 71.020905
[null_rope01_connect]
3 328.732483 0.000000 -0.000238 -138.976898 -71.509995 -157.119827 328.732483
4 328.732483 0.000000 -0.000238 -116.007271 -73.091492 171.627884 328.732483
[Rope1_Seg01]
3 -0.000035 -0.000070 0.000140 133.235474 24.967638 -148.751556 0.000161
4 -0.000034 -0.000067 0.000134 132.687088 61.445126 157.838318 0.000154
[Rope1_Seg02]
3 139.999863 -0.000179 0.000000 -52.795628 24.886421 8.453434 139.999863
4 139.999863 -0.000179 0.000000 -28.545876 46.254013 6.564733 139.999863
[Rope1_Seg03]
3 139.999924 0.000060 -0.000060 21.641047 -15.397743 -4.827744 139.999924
4 139.999924 0.000060 -0.000060 -4.785113 -17.080750 24.005615 139.999924
[Rope1_Seg04]
3 139.999924 -0.000060 -0.000119 27.144596 -37.148201 -8.803152 139.999924
4 139.999924 -0.000060 -0.000119 -1.982417 -40.218964 3.403775 139.999924
[Rope1_Seg05]
3 139.999832 0.000119 -0.000060 2.268323 -12.805586 3.406320 139.999832
4 139.999832 0.000119 -0.000060 -1.583261 -6.838414 1.067452 139.999832
[Rope1_Seg06]
3 139.999954 0.000119 -0.000060 0.156175 -1.175941 0.366059 139.999954
4 139.999954 0.000119 -0.000060 -0.991744 -3.501662 0.447626 139.999954
[Rope1_Seg07]
3 139.999985 0.000060 0.000000 0.006605 0.001660 0.001660 139.999985
4 139.999985 0.000060 0.000000 -0.490455 -1.585221 0.176616 139.999985
[Rope1_Seg09]
3 121.602913 0.000119 -0.000089 -89.793175 -1.359789 0.847147 121.602913
4 121.602913 0.000119 -0.000089 -89.793175 -1.359789 0.847147 121.602913
[L_mid_hand01]
3 103.859421 1.038730 8.195221 124.165955 -63.799015 -31.873352 104.187431
4 103.859421 1.038730 8.195221 119.391953 -59.659550 -26.459229 104.187431
[L_mid_hand02]
3 105.572853 -4.139662 -10.864139 -164.626358 42.318848 -67.191460 106.211075
4 105.572853 -4.139662 -10.864139 -160.502609 40.861904 -60.979630 106.211075
[L_mid_hand03]
3 104.641464 17.579376 -3.913581 -7.501869 17.251593 69.949562 106.179977
4 104.641464 17.579376 -3.913581 -8.971709 16.553080 64.913109 106.179977
[null_rope02_connect]
3 328.732849 0.000179 -0.000119 -134.095123 62.121857 -10.867815 328.732849
4 328.732849 0.000179 -0.000119 -132.849228 59.185646 -3.847604 328.732849
[Rope2_Seg01]
3 0.000058 0.000112 0.000000 -11.177291 12.620811 -37.879364 0.000126
4 0.000049 0.000111 0.000000 -80.321083 25.671028 -21.002823 0.000122
[Rope2_Seg02]
3 139.999741 -0.000060 -0.000119 -42.136330 -0.069702 13.286931 139.999756
4 139.999741 -0.000060 -0.000119 -6.269537 -14.763533 10.821173 139.999756
[Rope2_Seg03]
3 140.000107 0.000030 0.000000 -33.913185 11.144476 1.253172 140.000107
4 140.000107 0.000030 0.000000 -1.332327 -6.383028 4.099188 140.000107
[Rope2_Seg04]
3 139.999802 0.000000 -0.000060 -101.589897 54.312984 39.337902 139.999802
4 139.999802 0.000000 -0.000060 -19.503296 1.572866 32.841511 139.999802
[Rope2_Seg05]
3 139.999985 -0.000060 0.000119 -3.112053 -18.168503 11.936868 139.999985
4 139.999985 -0.000060 0.000119 -9.537210 -10.521603 36.539913 139.999985
[Rope2_Seg06]
3 139.999893 -0.000030 -0.000119 -0.195674 -3.482595 2.095772 139.999893
4 139.999893 -0.000030 -0.000119 0.444927 -6.126299 13.650305 139.999893
[Rope2_Seg07]
3 139.999893 0.000060 -0.000060 -0.052743 0.001660 0.001659 139.999893
4 139.999893 0.000060 -0.000060 0.444370 -1.261418 2.930099 139.999893
[Rope2_Seg09]
3 121.338966 0.000089 -0.000060 33.793236 -1.359788 -0.847141 121.338966
4 121.338966 0.000089 -0.000060 33.793236 -1.359788 -0.847141 121.338966
[R_mid_hand01]
3 104.680779 11.144459 -10.335981 -18.237753 44.607113 67.592667 105.778534
4 104.680779 11.144459 -10.335981 -20.399712 43.830379 64.493820 105.778534
[R_mid_hand02]
3 104.070427 2.443552 8.231699 52.237907 -66.108360 35.844143 104.424065
4 104.070427 2.443552 8.231699 55.242668 -64.206009 32.532043 104.424065
[R_mid_hand03]
3 106.028137 -11.221827 -5.996406 -176.510086 15.433296 -74.380737 106.788818
4 106.028137 -11.221827 -5.996406 -175.861618 15.275426 -71.940247 106.788818
[spine02]
3 129.756927 0.001550 0.000119 0.360061 -4.044797 -12.915058 129.756927
4 129.756927 0.001550 0.000119 0.360061 -4.044797 -12.915058 129.756927
[spine03]
3 78.614067 0.081635 -4.899007 1.896495 3.831288 16.473045 78.766602
4 78.614067 0.081635 -4.899007 1.896495 3.831288 16.473045 78.766602
[pelvis]
3 169.435242 0.051022 0.000000 -0.060465 -0.180225 14.087930 169.435257
4 169.435242 0.051022 0.000000 -0.060465 -0.180225 14.087931 169.435257
[null_rope03_connect]
3 -1.257226 -2.466202 137.391083 -52.957939 -85.848480 115.687386 137.418976
4 -1.257226 -2.466202 137.391083 -49.336601 -81.796562 115.416084 137.418976
[null_rope04_connect]
3 -1.259640 -2.480268 -137.844437 -52.957939 -85.848480 115.687386 137.872513
4 -1.259640 -2.480268 -137.844437 -49.336601 -81.796562 115.416084 137.872513
[Rope3_Seg01]
3 0.000010 0.000038 -0.000114 -130.601730 -0.114305 -80.885193 0.000121
4 0.000010 0.000038 -0.000114 -132.338486 -12.447240 -70.423935 0.000121
[Rope3_Seg02]
3 139.999924 -0.000119 0.000060 3.854190 -17.126982 -20.053814 139.999924
4 139.999924 -0.000119 0.000060 6.941598 -20.244661 -29.263472 139.999924
[Rope3_Seg03]
3 139.999924 -0.000119 0.000119 2.071908 -12.397096 -20.019979 139.999924
4 139.999924 -0.000119 0.000119 -1.005841 -8.240546 -15.089119 139.999924
[Rope3_Seg04]
3 139.999924 0.000119 0.000000 5.781344 -7.016917 -2.243419 139.999924
4 139.999924 0.000119 0.000000 4.310758 -5.051307 -4.772236 139.999924
[Rope3_Seg05]
3 139.999924 -0.000238 0.000060 13.488877 -7.459481 15.392317 139.999924
4 139.999924 -0.000238 0.000060 21.919224 -8.255127 -0.296602 139.999924
[Rope3_Seg06]
3 139.999893 -0.000119 -0.000060 8.447155 -5.109238 15.685753 139.999893
4 139.999893 -0.000119 -0.000060 34.980644 -10.507995 5.221232 139.999893
[Rope3_Seg07]
3 139.999771 0.000060 -0.000119 4.401426 -2.678173 12.299638 139.999771
4 139.999771 0.000060 -0.000119 20.474812 -5.582688 7.564225 139.999771
[Rope3_Seg08]
3 139.999985 -0.000060 0.000000 1.571067 -0.615161 4.549899 139.999985
4 139.999985 -0.000060 0.000000 10.264872 -1.897564 6.738512 139.999985
[Rope3_Seg09]
3 90.185997 -0.000179 -0.000060 89.793228 -1.359877 -0.847183 90.185997
4 90.185997 -0.000179 -0.000060 89.793228 -1.359877 -0.847183 90.185997
[R_rear_hand01]
3 103.366196 -6.073594 -10.757982 -176.465668 24.425859 -70.909309 104.101845
4 103.366196 -6.073594 -10.757982 -175.114853 24.208797 -67.632149 104.101845
[R_rear_hand02]
3 100.509819 12.039542 -7.992327 -14.843726 36.213379 68.859123 101.543350
4 100.509819 12.039542 -7.992327 -16.923939 35.395069 65.303368 101.543350
[R_rear_hand03]
3 101.539970 5.215704 5.435467 73.787918 -69.202950 19.069901 101.819031
4 101.539970 5.215704 5.435467 75.730560 -66.314209 16.974052 101.819031
[Rope4_Seg01]
3 0.000010 0.000035 -0.000140 50.483246 13.458410 -96.266121 0.000145
4 0.000010 0.000034 -0.000134 47.628475 -4.252221 -89.187241 0.000139
[Rope4_Seg02]
3 139.999985 0.000060 0.000119 1.048138 -15.011152 -7.514712 139.999985
4 139.999985 0.000060 0.000119 6.384915 -31.753170 -26.005819 139.999985
[Rope4_Seg03]
3 139.999924 0.000000 -0.000238 2.581378 -23.769295 -11.640091 139.999924
4 139.999924 0.000000 -0.000238 -6.997458 -27.350695 -24.453400 139.999924
[Rope4_Seg04]
3 139.999985 0.000000 0.000119 2.225669 -21.159182 -10.097326 139.999985
4 139.999985 0.000000 0.000119 -17.569830 -7.863307 -10.085386 139.999985
[Rope4_Seg05]
3 139.999802 -0.000060 -0.000119 -6.081275 -1.430626 -4.658796 139.999802
4 139.999802 -0.000060 -0.000119 -14.217991 -4.167777 -5.221035 139.999802
[Rope4_Seg06]
3 139.999924 0.000000 0.000060 -8.303430 2.121402 -4.363939 139.999924
4 139.999924 0.000000 0.000060 -41.654922 -5.546806 -6.486141 139.999924
[Rope4_Seg07]
3 139.999802 0.000000 0.000000 -8.423195 -0.198396 -5.207449 139.999802
4 139.999802 0.000000 0.000000 -76.739853 0.944138 -9.629932 139.999802
[Rope4_Seg08]
3 139.999924 0.000000 0.000119 -7.081837 0.336660 -3.076871 139.999924
4 139.999924 0.000000 0.000119 -13.604403 7.225419 -0.487026 139.999924
[Rope4_Seg09]
3 90.185791 0.000060 0.000060 -135.617828 2.228885 0.850567 90.185791
4 90.185791 0.000060 0.000060 -135.617828 2.228885 0.850567 90.185791
[L_rear_hand01]
3 101.696655 -8.392275 -7.654577 -18.919888 -34.466518 118.185951 102.329041
4 101.696655 -8.392275 -7.654577 -23.837845 -31.499460 127.199913 102.329041
[L_rear_hand02]
3 102.726799 -1.568258 5.773216 77.226944 63.386848 164.679077 102.900848
4 102.726799 -1.568258 5.773216 79.944244 55.427822 167.828537 102.900848
[L_rear_hand03]
3 104.552910 9.721220 -10.420293 -173.780411 -23.916803 -115.646591 105.519653
4 104.552910 9.721220 -10.420293 -170.300720 -22.790039 -124.406273 105.519653
